<!DOCTYPE svg PUBLIC "-//W3C//DTD SVG 1.1//EN" "http://www.w3.org/Graphics/SVG/1.1/DTD/svg11.dtd">
<!-- Uploaded to: SVG Repo, www.svgrepo.com, Transformed by: SVG Repo Mixer Tools -->
<svg width="64px" height="64px" viewBox="-2.5 -2.5 30.00 30.00" fill="none" xmlns="http://www.w3.org/2000/svg" transform="matrix(1, 0, 0, 1, 0, 0)rotate(0)" stroke="#1c1d21">
<g id="SVGRepo_bgCarrier" stroke-width="0"/>
<g id="SVGRepo_tracerCarrier" stroke-linecap="round" stroke-linejoin="round"/>
<g id="SVGRepo_iconCarrier"> <path fill-rule="evenodd" clip-rule="evenodd" d="M14.9769 14H10.0229C8.56488 14.0724 7.2731 14.963 6.68693 16.3C5.97993 17.688 7.39093 19 9.03193 19H15.9679C17.6099 19 19.0209 17.688 18.3129 16.3C17.7268 14.963 16.435 14.0724 14.9769 14Z" stroke="#1c1d21" stroke-width="1.5" stroke-linecap="round" stroke-linejoin="round"/> <path fill-rule="evenodd" clip-rule="evenodd" d="M15.4999 8C15.4999 9.65685 14.1568 11 12.4999 11C10.8431 11 9.49994 9.65685 9.49994 8C9.49994 6.34315 10.8431 5 12.4999 5C13.2956 5 14.0587 5.31607 14.6213 5.87868C15.1839 6.44129 15.4999 7.20435 15.4999 8Z" stroke="#1c1d21" stroke-width="1.5" stroke-linecap="round" stroke-linejoin="round"/> </g>
</svg>